<svg xmlns:xlink="http://www.w3.org/1999/xlink"  width="60" height="60" viewBox="0 0 60 60" xmlns="http://www.w3.org/2000/svg" fill="#2dc7c2" ><path d="M46.1633 25.5094C46.1914 25.2937 46.1914 25.1812 46.2102 24.9844L46.2195 24.8719C46.4539 20.1938 44.9727 16.0875 42.0477 13.2938C39.1227 10.5 34.8945 9.20625 30.1508 9.65625C20.8695 10.5469 14.6445 16.7531 14.6445 25.0969C14.6445 29.3156 16.2195 34.0219 18.8445 37.6688C20.6539 40.1813 21.6102 43.2281 21.6102 46.4906V49.4062C21.6102 49.8937 21.9945 50.2875 22.482 50.3063C22.407 50.55 22.3508 50.7938 22.3508 51.0656C22.3508 51.7031 22.5945 52.275 22.9695 52.725C22.5852 53.175 22.3508 53.7469 22.3508 54.3844C22.3508 55.6594 23.2977 56.7188 24.5164 56.9062C24.9102 58.6688 26.4852 60 28.3695 60H33.0758C34.9602 60 36.5352 58.6781 36.9289 56.9062C37.5309 56.8123 38.0797 56.5068 38.4766 56.0446C38.8736 55.5823 39.0927 54.9937 39.0945 54.3844C39.0945 53.7469 38.8508 53.175 38.4758 52.725C38.8602 52.275 39.0945 51.7031 39.0945 51.0656C39.0945 50.8031 39.0477 50.5594 38.9727 50.3156H39.1695C39.6758 50.3156 40.0789 49.9125 40.0789 49.4062V42.9094C40.0789 42.6281 40.3039 42.4031 40.5852 42.4031H43.3133C44.196 42.4031 45.0425 42.0525 45.6666 41.4283C46.2908 40.8042 46.6414 39.9577 46.6414 39.075V35.0906L48.0477 34.9219C48.3103 34.8913 48.5613 34.7967 48.7788 34.6463C48.9962 34.4959 49.1733 34.2943 49.2945 34.0594C49.5477 33.5813 49.5383 33.0094 49.3133 32.6062L46.1633 25.5094ZM33.0758 58.1813H28.3695C27.5164 58.1813 26.7852 57.675 26.4383 56.9531H35.007C34.8337 57.3191 34.5604 57.6287 34.2187 57.846C33.877 58.0633 33.4807 58.1795 33.0758 58.1813ZM36.5352 55.1344H24.9102C24.4977 55.1344 24.1602 54.7969 24.1602 54.3844C24.1602 53.9719 24.4977 53.6344 24.9102 53.6344H36.5352C36.9477 53.6344 37.2852 53.9719 37.2852 54.3844C37.2758 54.7969 36.9477 55.1344 36.5352 55.1344ZM37.2758 51.075C37.2758 51.4875 36.9383 51.825 36.5258 51.825H24.9008C24.4883 51.825 24.1508 51.4875 24.1508 51.075C24.1508 50.6625 24.4883 50.325 24.9008 50.325H36.5258C36.9477 50.325 37.2758 50.6531 37.2758 51.075ZM45.6289 33.3844C45.1695 33.4406 44.8227 33.825 44.8227 34.2844V39.075C44.8227 39.9094 44.1477 40.5844 43.3133 40.5844H40.5945C39.9779 40.5844 39.3865 40.8293 38.9505 41.2654C38.5145 41.7014 38.2695 42.2927 38.2695 42.9094V48.4969H23.4195V46.5C23.4195 42.8531 22.3414 39.4312 20.3164 36.6094C17.8977 33.2531 16.4539 28.95 16.4539 25.0969C16.4539 17.7375 22.0227 12.2625 30.3195 11.4656C34.5852 11.0625 38.2039 12.1406 40.782 14.6062C43.3133 17.025 44.5977 20.6438 44.3914 24.7781L44.382 24.8906C44.3727 25.0969 44.3633 25.1813 44.3164 25.5C44.2883 25.6688 44.3164 25.8469 44.382 26.0063L47.5602 33.15L45.6289 33.3844ZM30.057 7.19063C30.5633 7.19063 30.9664 6.7875 30.9664 6.28125V0.909375C30.9664 0.403125 30.5633 0 30.057 0C29.5508 0 29.1477 0.403125 29.1477 0.909375V6.28125C29.1477 6.7875 29.5508 7.19063 30.057 7.19063ZM39.432 9.73125C39.5727 9.81563 39.732 9.85313 39.882 9.85313C40.2008 9.85313 40.5008 9.69375 40.6695 9.40312L43.3602 4.74375C43.4204 4.64064 43.4596 4.52653 43.4752 4.40812C43.4909 4.2897 43.4827 4.16935 43.4513 4.05412C43.4199 3.93888 43.3658 3.83107 43.2922 3.737C43.2186 3.64292 43.1269 3.56448 43.0227 3.50625C42.9195 3.44596 42.8054 3.40685 42.687 3.39119C42.5686 3.37554 42.4483 3.38367 42.333 3.4151C42.2178 3.44652 42.11 3.50062 42.0159 3.57423C41.9218 3.64783 41.8434 3.73946 41.7852 3.84375L39.0945 8.49375C39.0345 8.59693 38.9956 8.71102 38.9801 8.82938C38.9646 8.94774 38.9727 9.06801 39.0041 9.18317C39.0356 9.29834 39.0896 9.40611 39.163 9.5002C39.2365 9.5943 39.3279 9.67284 39.432 9.73125ZM47.0633 17.0719C47.2133 17.0719 47.3727 17.0344 47.5133 16.95L52.1633 14.2594C52.5945 14.0063 52.7445 13.4531 52.5008 13.0219C52.3796 12.815 52.1822 12.6638 51.9509 12.6007C51.7196 12.5376 51.4727 12.5677 51.2633 12.6844L46.6133 15.375C46.182 15.6281 46.032 16.1812 46.2758 16.6125C46.4445 16.9125 46.7539 17.0719 47.0633 17.0719ZM55.0414 25.0969H49.6695C49.1633 25.0969 48.7602 25.5 48.7602 26.0063C48.7602 26.5125 49.1633 26.9156 49.6695 26.9156H55.0414C55.2826 26.9156 55.5139 26.8198 55.6844 26.6493C55.855 26.4787 55.9508 26.2474 55.9508 26.0063C55.9508 25.7651 55.855 25.5338 55.6844 25.3632C55.5139 25.1927 55.2826 25.0969 55.0414 25.0969ZM12.4883 34.95L7.82891 37.6406C7.72262 37.6985 7.62902 37.7771 7.55362 37.8718C7.47823 37.9665 7.42258 38.0753 7.38995 38.1918C7.35733 38.3084 7.3484 38.4303 7.36368 38.5503C7.37897 38.6704 7.41816 38.7862 7.47894 38.8908C7.53973 38.9955 7.62088 39.0869 7.71759 39.1596C7.8143 39.2324 7.92461 39.285 8.04201 39.3144C8.15941 39.3438 8.28151 39.3494 8.4011 39.3308C8.52069 39.3123 8.63534 39.2699 8.73828 39.2062L13.3883 36.5156C13.8195 36.2625 13.9695 35.7094 13.7258 35.2781C13.6037 35.0721 13.4056 34.9222 13.1742 34.8609C12.9427 34.7995 12.6964 34.8315 12.4883 34.95ZM11.2414 25.9031C11.2414 25.3969 10.8383 24.9937 10.332 24.9937H4.96016C4.45391 24.9937 4.05078 25.3969 4.05078 25.9031C4.05078 26.4094 4.45391 26.8125 4.96016 26.8125H10.332C10.8289 26.8031 11.2414 26.4 11.2414 25.9031ZM13.4445 15.2812L8.78516 12.5906C8.68204 12.5303 8.56794 12.4912 8.44952 12.4756C8.33111 12.4599 8.21076 12.468 8.09552 12.4995C7.98029 12.5309 7.87248 12.585 7.7784 12.6586C7.68433 12.7322 7.60588 12.8238 7.54766 12.9281C7.48737 13.0312 7.44825 13.1453 7.4326 13.2638C7.41695 13.3822 7.42507 13.5025 7.4565 13.6178C7.48793 13.733 7.54203 13.8408 7.61563 13.9349C7.68924 14.0289 7.78086 14.1074 7.88516 14.1656L12.5352 16.8562C12.6758 16.9406 12.8352 16.9781 12.9852 16.9781C13.3039 16.9781 13.6039 16.8187 13.7727 16.5281C13.8348 16.4252 13.8757 16.3108 13.8928 16.1918C13.9099 16.0728 13.903 15.9515 13.8724 15.8353C13.8418 15.719 13.7882 15.61 13.7147 15.5149C13.6412 15.4197 13.5493 15.3402 13.4445 15.2812ZM19.4258 9.34688C19.5475 9.55329 19.7456 9.70346 19.9772 9.76487C20.2088 9.82628 20.4553 9.79399 20.6633 9.675C21.0945 9.42188 21.2445 8.86875 21.0008 8.4375L18.3102 3.7875C18.1839 3.59276 17.9878 3.45375 17.7623 3.399C17.5367 3.34424 17.2988 3.37789 17.0973 3.49305C16.8957 3.6082 16.7459 3.79612 16.6786 4.01824C16.6113 4.24036 16.6315 4.47983 16.7352 4.6875L19.4258 9.34688Z"></path><path d="M41.522 22.3593C41.4056 22.2942 41.276 22.2562 41.1429 22.2481C41.0098 22.24 40.8766 22.262 40.7532 22.3124L40.5938 22.3781C40.1063 22.5656 39.5532 22.3218 39.3657 21.8437C39.272 21.5999 39.2813 21.3562 39.3845 21.1218C39.4876 20.8874 39.6657 20.7093 39.9001 20.6249L40.0595 20.5593C40.3126 20.4656 40.5095 20.2593 40.5938 20.0062C40.6782 19.7531 40.6501 19.4718 40.5095 19.2374C39.6652 17.867 38.5366 16.6937 37.2001 15.7968C37.09 15.7224 36.965 15.673 36.8339 15.6519C36.7027 15.6309 36.5685 15.6387 36.4407 15.6749C36.3129 15.7122 36.1948 15.7767 36.0944 15.8642C35.9941 15.9516 35.9139 16.0597 35.8595 16.1812L35.7938 16.3406C35.5876 16.8093 34.997 17.0249 34.547 16.8281C34.0688 16.6218 33.8532 16.0593 34.0595 15.5812L34.1251 15.4218C34.2376 15.1781 34.2282 14.8968 34.1063 14.6531C33.9845 14.4093 33.7688 14.2312 33.5063 14.1749C31.9595 13.7999 30.3095 13.7718 28.7345 14.0812C28.472 14.1374 28.2376 14.2968 28.1157 14.5406C27.9845 14.7749 27.9657 15.0562 28.0688 15.3093L28.1251 15.4687C28.1705 15.5838 28.1927 15.7067 28.1904 15.8303C28.1881 15.954 28.1613 16.076 28.1116 16.1893C28.062 16.3026 27.9904 16.4049 27.901 16.4904C27.8115 16.5759 27.7061 16.6429 27.5907 16.6874C27.1126 16.8749 26.5501 16.6312 26.3626 16.1531L26.297 15.9937C26.2499 15.8678 26.1748 15.7542 26.0773 15.6616C25.9799 15.5691 25.8626 15.4999 25.7345 15.4593C25.6078 15.4171 25.4735 15.4028 25.3408 15.4173C25.2081 15.4319 25.0802 15.475 24.9657 15.5437C23.6063 16.3781 22.4251 17.5218 21.5251 18.8531C21.3751 19.0781 21.3282 19.3593 21.4032 19.6124C21.4782 19.8749 21.6657 20.0812 21.9095 20.1937L22.0688 20.2593C22.3032 20.3624 22.4813 20.5406 22.5657 20.7843C22.6595 21.0187 22.6501 21.2812 22.5563 21.5062C22.3501 21.9656 21.797 22.2093 21.3095 21.9937L21.1501 21.9281C21.0285 21.8747 20.8968 21.8487 20.7641 21.8519C20.6314 21.855 20.501 21.8872 20.3821 21.9462C20.2632 22.0052 20.1587 22.0896 20.076 22.1933C19.9932 22.2971 19.9343 22.4178 19.9032 22.5468C19.5282 24.1031 19.5001 25.7531 19.8095 27.3187C19.8657 27.5812 20.0251 27.8062 20.2688 27.9374C20.5032 28.0687 20.7845 28.0874 21.0376 27.9843L21.197 27.9187C21.6938 27.7218 22.2376 27.9749 22.4251 28.4531C22.6126 28.9406 22.3782 29.4843 21.8907 29.6812L21.7313 29.7468C21.4782 29.8499 21.2907 30.0468 21.2063 30.3093C21.122 30.5624 21.1501 30.8437 21.3001 31.0781C22.1444 32.4485 23.2729 33.6218 24.6095 34.5187C24.8345 34.6687 25.1063 34.7062 25.3688 34.6406C25.6313 34.5656 25.8376 34.3781 25.9501 34.1343L26.0157 33.9749C26.2126 33.5062 26.7751 33.2812 27.2626 33.4874C27.497 33.5906 27.6751 33.7687 27.7595 34.0031C27.8532 34.2374 27.8438 34.4906 27.7407 34.7249L27.6751 34.8843C27.6218 35.0059 27.5958 35.1376 27.5989 35.2703C27.602 35.403 27.6342 35.5334 27.6932 35.6523C27.7522 35.7712 27.8366 35.8757 27.9404 35.9584C28.0441 36.0412 28.1648 36.1001 28.2938 36.1312C29.8586 36.5096 31.4872 36.5416 33.0657 36.2249C33.3282 36.1687 33.5626 36.0093 33.6845 35.7656C33.8157 35.5312 33.8345 35.2499 33.7313 34.9968L33.6657 34.8374C33.572 34.6031 33.5813 34.3499 33.6845 34.1156C33.7876 33.8812 33.9657 33.7031 34.2001 33.6093C34.6782 33.4218 35.2407 33.6749 35.4282 34.1437L35.4938 34.3031C35.597 34.5562 35.7938 34.7437 36.0563 34.8281C36.3095 34.9124 36.5907 34.8843 36.8251 34.7437C38.1955 33.8994 39.3688 32.7709 40.2657 31.4343C40.4157 31.2093 40.4626 30.9281 40.3782 30.6749C40.341 30.5472 40.2764 30.429 40.189 30.3287C40.1016 30.2283 39.9934 30.1481 39.872 30.0937L39.7126 30.0281C39.4876 29.9249 39.3095 29.7468 39.2157 29.5124C39.122 29.2781 39.1313 29.0249 39.2251 28.7906C39.4313 28.3218 40.0032 28.0968 40.472 28.3031L40.6313 28.3687C40.7529 28.422 40.8846 28.448 41.0173 28.4449C41.15 28.4417 41.2804 28.4095 41.3993 28.3505C41.5182 28.2915 41.6227 28.2072 41.7054 28.1034C41.7882 27.9996 41.8472 27.879 41.8782 27.7499C42.2438 26.1937 42.272 24.5437 41.9626 22.9781C41.9416 22.848 41.8909 22.7246 41.8145 22.6173C41.7381 22.51 41.638 22.4217 41.522 22.3593ZM40.2845 26.4187C39.1407 26.3343 38.0345 27.0093 37.5657 28.0687C37.2657 28.7437 37.2563 29.4937 37.5282 30.1781C37.6782 30.5624 37.9126 30.8999 38.2032 31.1812C37.7438 31.7343 37.2188 32.2406 36.647 32.6812C35.9157 31.8374 34.6501 31.4999 33.5532 31.9218C32.8688 32.1937 32.3251 32.7093 32.0251 33.3843C31.8563 33.7687 31.7813 34.1718 31.7907 34.5749C31.0782 34.6406 30.347 34.6312 29.6345 34.5281C29.6626 34.1249 29.597 33.7218 29.447 33.3281C29.1751 32.6437 28.6595 32.0999 27.9751 31.8093C26.9063 31.3499 25.622 31.6312 24.8626 32.4468C24.3095 31.9874 23.8032 31.4624 23.3626 30.8906C24.2157 30.1406 24.5532 28.9124 24.122 27.7968C23.6907 26.7093 22.6688 25.9968 21.4688 26.0437C21.4032 25.3312 21.4126 24.5999 21.5157 23.8874C22.6595 23.9624 23.7657 23.2968 24.2345 22.2374C24.5251 21.5624 24.5438 20.8124 24.272 20.1187C24.122 19.7343 23.8876 19.3968 23.597 19.1156C24.0566 18.5605 24.5788 18.0603 25.1532 17.6249C25.8845 18.4593 27.1595 18.7968 28.247 18.3749C29.3626 17.9343 30.0282 16.8562 30.0001 15.7218C30.722 15.6562 31.4532 15.6656 32.1563 15.7593C32.0813 16.8843 32.7095 17.9999 33.8063 18.4781C34.8751 18.9374 36.1501 18.6562 36.9188 17.8406C37.472 18.2999 37.9782 18.8249 38.4188 19.3968C37.9903 19.7724 37.6883 20.2712 37.5541 20.825C37.4198 21.3787 37.4599 21.9604 37.6688 22.4906C38.1001 23.5781 39.1407 24.2906 40.322 24.2437C40.397 24.9749 40.3876 25.6968 40.2845 26.4187Z"></path><path d="M30.9094 19.425C27.75 19.425 25.1719 21.9938 25.1719 25.1625C25.1719 28.3219 27.7406 30.9 30.9094 30.9C34.0688 30.9 36.6469 28.3313 36.6469 25.1625C36.6469 21.9938 34.0688 19.425 30.9094 19.425ZM30.9094 29.0719C28.7531 29.0719 26.9906 27.3094 26.9906 25.1532C26.9906 22.9969 28.7438 21.2344 30.9094 21.2344C33.0656 21.2344 34.8281 22.9875 34.8281 25.1532C34.8281 27.3188 33.0656 29.0719 30.9094 29.0719Z"></path></svg>