<svg xmlns:xlink="http://www.w3.org/1999/xlink"  width="60" height="60" viewBox="0 0 60 60" xmlns="http://www.w3.org/2000/svg" fill="#2dc7c2"><g clip-path="url(#clip0_2121_3189)"><path d="M30 7C26.8355 7 23.7421 7.93838 21.1109 9.69649C18.4797 11.4546 16.4289 13.9534 15.2179 16.8771C14.0069 19.8007 13.6901 23.0177 14.3074 26.1214C14.9248 29.2251 16.4487 32.0761 18.6863 34.3137C20.9239 36.5513 23.7749 38.0752 26.8786 38.6926C29.9823 39.3099 33.1993 38.9931 36.1229 37.7821C39.0466 36.5711 41.5454 34.5203 43.3035 31.8891C45.0616 29.2579 46 26.1645 46 23C45.995 18.7581 44.3077 14.6913 41.3082 11.6918C38.3087 8.69235 34.2419 7.00503 30 7ZM30 37C27.2311 37 24.5243 36.1789 22.222 34.6406C19.9197 33.1022 18.1253 30.9157 17.0657 28.3576C16.0061 25.7994 15.7288 22.9845 16.269 20.2687C16.8092 17.553 18.1426 15.0584 20.1005 13.1005C22.0584 11.1426 24.553 9.8092 27.2687 9.26901C29.9845 8.72881 32.7994 9.00606 35.3576 10.0657C37.9157 11.1253 40.1022 12.9197 41.6406 15.222C43.1789 17.5243 44 20.2311 44 23C43.996 26.7118 42.5198 30.2705 39.8951 32.8951C37.2705 35.5198 33.7118 36.996 30 37Z"></path><path d="M33.8793 16.879L26.0003 24.761C25.4213 24.2668 24.6794 24.0053 23.9185 24.0271C23.1577 24.0489 22.432 24.3525 21.8823 24.879C21.3199 25.4416 21.0039 26.2045 21.0039 27C21.0039 27.7955 21.3199 28.5584 21.8823 29.121L23.8823 31.121C24.4486 31.6767 25.2103 31.988 26.0038 31.988C26.7972 31.988 27.559 31.6767 28.1253 31.121L38.1253 21.121C38.6717 20.5552 38.9741 19.7974 38.9673 19.0108C38.9605 18.2242 38.6449 17.4718 38.0887 16.9155C37.5325 16.3593 36.7801 16.0438 35.9935 16.037C35.2069 16.0301 34.4491 16.3325 33.8833 16.879H33.8793ZM36.7073 19.707L26.7073 29.707C26.5171 29.8895 26.2638 29.9914 26.0003 29.9914C25.7367 29.9914 25.4834 29.8895 25.2933 29.707L23.2933 27.707C23.1111 27.5184 23.0103 27.2658 23.0126 27.0036C23.0149 26.7414 23.12 26.4906 23.3054 26.3052C23.4909 26.1198 23.7417 26.0146 24.0039 26.0123C24.2661 26.01 24.5187 26.1108 24.7073 26.293L25.2933 26.879C25.4808 27.0665 25.7351 27.1718 26.0003 27.1718C26.2654 27.1718 26.5197 27.0665 26.7073 26.879L35.2933 18.293C35.4819 18.1108 35.7345 18.01 35.9967 18.0123C36.2589 18.0146 36.5097 18.1198 36.6951 18.3052C36.8805 18.4906 36.9857 18.7414 36.9879 19.0036C36.9902 19.2658 36.8894 19.5184 36.7073 19.707Z"></path><path d="M51.4795 19.128L49.4045 18.3C48.9203 16.2905 48.1236 14.3694 47.0435 12.607L47.9215 10.551C48.093 10.1682 48.1538 9.74502 48.0969 9.32944C48.0399 8.91386 47.8676 8.52257 47.5995 8.20001C47.2345 7.76101 46.8155 7.30001 46.2585 6.72801C45.7956 6.27152 45.3146 5.83383 44.8165 5.41601C44.4938 5.14447 44.1013 4.96893 43.6838 4.90935C43.2662 4.84978 42.8403 4.90856 42.4545 5.07901L40.3975 5.95801C38.6333 4.87852 36.7106 4.08283 34.6995 3.60001L33.8695 1.52201C33.7157 1.13426 33.4589 0.795876 33.1269 0.543343C32.7949 0.29081 32.4002 0.133716 31.9855 0.0890067C30.6678 -0.0290178 29.3422 -0.0290178 28.0245 0.0890067C27.6073 0.131813 27.2098 0.287851 26.875 0.540246C26.5401 0.79264 26.2806 1.13179 26.1245 1.52101L25.2995 3.60001C23.29 4.08443 21.369 4.88112 19.6065 5.96101L17.5495 5.07801C17.1669 4.90645 16.7438 4.84568 16.3284 4.90261C15.913 4.95953 15.5219 5.13186 15.1995 5.40001C14.7585 5.76501 14.2995 6.18501 13.7275 6.74001C13.2708 7.20236 12.8334 7.68344 12.4165 8.18201C12.1438 8.50431 11.9674 8.89689 11.9074 9.31479C11.8475 9.7327 11.9064 10.159 12.0775 10.545L12.9565 12.602C11.8761 14.3663 11.0788 16.2889 10.5935 18.3L8.5155 19.131C8.12856 19.2855 7.79114 19.5427 7.53966 19.8749C7.28818 20.2071 7.13219 20.6017 7.0885 21.016C6.9705 22.333 6.9705 23.658 7.0885 24.975C7.13066 25.3924 7.28645 25.7902 7.53893 26.1252C7.79141 26.4602 8.13091 26.7195 8.5205 26.875L10.5945 27.704C11.08 29.7133 11.877 31.6342 12.9565 33.397L12.0785 35.453C11.9077 35.8352 11.8472 36.2576 11.9039 36.6723C11.9606 37.0871 12.1323 37.4777 12.3995 37.8C12.7645 38.241 13.1845 38.7 13.7405 39.272C14.2915 39.81 14.7535 40.23 15.1815 40.584C15.2165 40.614 15.2595 40.629 15.2965 40.657L10.2485 52.269C10.051 52.7376 9.97252 53.2478 10.0201 53.7541C10.0676 54.2604 10.2397 54.7471 10.521 55.1708C10.8022 55.5944 11.184 55.9419 11.6321 56.1822C12.0803 56.4225 12.581 56.5482 13.0895 56.548H17.3795C17.4339 56.5474 17.488 56.5576 17.5384 56.578C17.5889 56.5984 17.6348 56.6287 17.6735 56.667L20.1125 59.1C20.4673 59.4546 20.9032 59.7173 21.3824 59.8657C21.8615 60.014 22.3696 60.0434 22.8627 59.9513C23.3558 59.8593 23.8191 59.6485 24.2124 59.3373C24.6058 59.0261 24.9175 58.6237 25.1205 58.165L29.9995 47.417L34.8735 58.147C35.0737 58.6083 35.3838 59.0135 35.7767 59.3273C36.1696 59.6411 36.6334 59.8538 37.1275 59.947C37.3161 59.9828 37.5076 60.0005 37.6995 60C38.5173 60.0009 39.3021 59.6772 39.8815 59.1L42.3245 56.667C42.4028 56.5914 42.5077 56.5497 42.6165 56.551H46.9065C47.416 56.5512 47.9175 56.4251 48.3663 56.184C48.8151 55.9429 49.1972 55.5942 49.4782 55.1693C49.7593 54.7444 49.9306 54.2564 49.9769 53.7491C50.0232 53.2417 49.943 52.7308 49.7435 52.262L44.6925 40.664C44.7265 40.638 44.7685 40.624 44.8015 40.596C45.2405 40.231 45.7015 39.812 46.2735 39.255C46.73 38.7921 47.1677 38.3111 47.5855 37.813C47.8577 37.4906 48.0336 37.0981 48.0932 36.6804C48.1528 36.2627 48.0937 35.8367 47.9225 35.451L47.0435 33.394C48.1237 31.6313 48.9204 29.7099 49.4045 27.7L51.4825 26.87C51.8695 26.7154 52.2069 26.4581 52.4585 26.126C52.7101 25.7939 52.8664 25.3994 52.9105 24.985C52.9741 24.3253 53.0038 23.6628 52.9995 23C53.0038 22.3389 52.9741 21.678 52.9105 21.02C52.8664 20.6044 52.7099 20.2086 52.4578 19.8753C52.2056 19.5419 51.8674 19.2836 51.4795 19.128ZM23.2925 57.347C23.2215 57.5095 23.1118 57.6522 22.9731 57.7627C22.8343 57.8731 22.6706 57.948 22.4963 57.9807C22.322 58.0134 22.1424 58.003 21.973 57.9505C21.8036 57.8979 21.6496 57.8047 21.5245 57.679L19.0875 55.252C18.6327 54.8026 18.0189 54.5511 17.3795 54.552H13.0895C12.9109 54.5529 12.7349 54.5089 12.5777 54.4242C12.4205 54.3395 12.287 54.2167 12.1895 54.067C12.09 53.9213 12.0288 53.7529 12.0113 53.5773C11.9938 53.4017 12.0207 53.2245 12.0895 53.062L17.3415 40.98C17.4105 40.958 17.4805 40.952 17.5485 40.923L19.6055 40.044C21.3683 41.124 23.2897 41.9207 25.2995 42.405L26.1295 44.484C26.2845 44.8706 26.5418 45.2078 26.8739 45.4592C27.206 45.7106 27.6003 45.8668 28.0145 45.911C28.1615 45.926 28.3205 45.933 28.4735 45.944L23.2925 57.347ZM47.9085 53.047C47.9777 53.2116 48.0051 53.3908 47.9881 53.5685C47.9712 53.7463 47.9105 53.9171 47.8115 54.0656C47.7124 54.2142 47.5781 54.3359 47.4205 54.4199C47.263 54.5039 47.0871 54.5476 46.9085 54.547H42.6195C41.9829 54.5478 41.3721 54.7993 40.9195 55.247L38.4775 57.679C38.3512 57.8049 38.1959 57.8978 38.0252 57.9497C37.8546 58.0016 37.6738 58.0108 37.4988 57.9766C37.3238 57.9423 37.1598 57.8656 37.0214 57.7533C36.8829 57.6409 36.7741 57.4962 36.7045 57.332L31.5315 45.942C31.6805 45.931 31.8315 45.925 31.9795 45.91C32.3967 45.8672 32.7942 45.7112 33.1291 45.4588C33.4639 45.2064 33.7234 44.8672 33.8795 44.478L34.7085 42.403C36.718 41.9188 38.6391 41.1221 40.4015 40.042L42.4575 40.92C42.5215 40.948 42.5895 40.953 42.6575 40.975L47.9085 53.047ZM50.9195 24.8C50.9105 24.8489 50.889 24.8947 50.8571 24.9329C50.8252 24.9711 50.784 25.0004 50.7375 25.018L48.1755 26.042C48.023 26.1034 47.8878 26.2012 47.7818 26.3268C47.6758 26.4525 47.6022 26.6023 47.5675 26.763C47.1128 28.8986 46.2695 30.9323 45.0795 32.763C44.9904 32.9007 44.9364 33.0581 44.9225 33.2215C44.9085 33.3849 44.935 33.5492 44.9995 33.7L46.0845 36.241C46.1069 36.2871 46.116 36.3386 46.1109 36.3896C46.1058 36.4406 46.0866 36.4892 46.0555 36.53C45.7275 36.93 45.3415 37.352 44.8555 37.845C44.3435 38.345 43.9195 38.731 43.5105 39.068C43.4698 39.0955 43.4226 39.1118 43.3736 39.1151C43.3246 39.1185 43.2755 39.1088 43.2315 39.087L40.6995 38C40.5488 37.9358 40.3846 37.9096 40.2214 37.9237C40.0582 37.9379 39.901 37.9919 39.7635 38.081C37.9328 39.271 35.8991 40.1143 33.7635 40.569C33.6028 40.6037 33.453 40.6773 33.3273 40.7833C33.2016 40.8893 33.1038 41.0245 33.0425 41.177L32.0195 43.736C32.0011 43.7848 31.97 43.8278 31.9294 43.8605C31.8888 43.8932 31.8401 43.9145 31.7885 43.922C31.1959 43.978 30.6008 44.0041 30.0055 44H29.9935C29.3955 44.0035 28.7978 43.9768 28.2025 43.92C28.1536 43.9109 28.1079 43.8894 28.0697 43.8575C28.0315 43.8256 28.0022 43.7845 27.9845 43.738L26.9605 41.176C26.8997 41.0233 26.8022 40.8879 26.6766 40.7819C26.551 40.6758 26.4012 40.6024 26.2405 40.568C24.1048 40.1138 22.0709 39.2704 20.2405 38.08C20.0785 37.975 19.8896 37.919 19.6965 37.919C19.56 37.9185 19.4249 37.946 19.2995 38L16.7585 39.085C16.7127 39.1081 16.6613 39.1177 16.6103 39.1125C16.5592 39.1074 16.5107 39.0878 16.4705 39.056C16.0705 38.727 15.6485 38.341 15.1555 37.856C14.6555 37.345 14.2715 36.922 13.9315 36.511C13.904 36.4705 13.8879 36.4233 13.8847 36.3745C13.8815 36.3256 13.8915 36.2768 13.9135 36.233L14.9995 33.7C15.0637 33.5493 15.0899 33.3851 15.0758 33.2219C15.0616 33.0587 15.0076 32.9015 14.9185 32.764C13.7282 30.9334 12.8846 28.8996 12.4295 26.764C12.3954 26.6032 12.3221 26.4533 12.2163 26.3275C12.1104 26.2018 11.9751 26.104 11.8225 26.043L9.2645 25.017C9.21614 24.9979 9.17357 24.9666 9.14096 24.9261C9.10835 24.8856 9.08683 24.8373 9.0785 24.786C9.0255 24.255 8.9995 23.671 8.9995 23C8.9995 22.329 9.0255 21.745 9.0795 21.2C9.08885 21.1513 9.11047 21.1059 9.14232 21.0679C9.17417 21.0299 9.2152 21.0007 9.2615 20.983L11.8235 19.959C11.9761 19.898 12.1114 19.8003 12.2173 19.6745C12.3231 19.5487 12.3964 19.3988 12.4305 19.238C12.8856 17.1024 13.7292 15.0686 14.9195 13.238C15.0088 13.1002 15.0628 12.9426 15.0768 12.779C15.0907 12.6154 15.0642 12.4509 14.9995 12.3L13.9165 9.76301C13.8939 9.71675 13.8847 9.66511 13.8898 9.61389C13.8949 9.56266 13.9142 9.51388 13.9455 9.47301C14.2745 9.07301 14.6595 8.65201 15.1455 8.15801C15.6565 7.65801 16.0805 7.27401 16.4915 6.93501C16.5317 6.90711 16.5787 6.89069 16.6275 6.88752C16.6763 6.88435 16.7251 6.89454 16.7685 6.91701L19.2995 8.00001C19.4504 8.06438 19.6147 8.09066 19.7781 8.07654C19.9415 8.06241 20.0989 8.00831 20.2365 7.91901C22.0669 6.72857 24.1008 5.88519 26.2365 5.43101C26.3972 5.39664 26.547 5.32319 26.6726 5.21714C26.7982 5.11109 26.8957 4.97572 26.9565 4.82301L27.9785 2.26501C27.997 2.21599 28.0283 2.17281 28.0691 2.13994C28.1098 2.10706 28.1587 2.08568 28.2105 2.07801C29.4022 1.97201 30.6009 1.97201 31.7925 2.07801C31.8414 2.08701 31.8872 2.1085 31.9254 2.14038C31.9636 2.17227 31.9929 2.21347 32.0105 2.26001L33.0345 4.82201C33.0958 4.97455 33.1936 5.10974 33.3193 5.21573C33.445 5.32173 33.5948 5.3953 33.7555 5.43001C35.8911 5.88472 37.9248 6.72806 39.7555 7.91801C39.8938 8.00866 40.0524 8.0636 40.2172 8.07792C40.3819 8.09223 40.5476 8.06546 40.6995 8.00001L43.2405 6.91501C43.2866 6.89262 43.3381 6.88347 43.3891 6.88859C43.4401 6.89371 43.4887 6.9129 43.5295 6.94401C43.9295 7.27201 44.3515 7.65801 44.8445 8.14401C45.3445 8.65601 45.7305 9.08001 46.0675 9.48901C46.0955 9.52948 46.1121 9.57678 46.1154 9.62589C46.1188 9.675 46.1088 9.72411 46.0865 9.76801L44.9995 12.3C44.9353 12.4507 44.9091 12.6149 44.9232 12.7781C44.9374 12.9413 44.9914 13.0986 45.0805 13.236C46.2705 15.0667 47.1138 17.1005 47.5685 19.236C47.6032 19.3967 47.6768 19.5465 47.7828 19.6722C47.8888 19.7979 48.024 19.8957 48.1765 19.957L50.7355 20.98C50.7827 20.9974 50.8245 21.0267 50.857 21.065C50.8894 21.1034 50.9113 21.1496 50.9205 21.199V21.211C50.9774 21.8056 51.0038 22.4027 50.9995 23C51.0036 23.601 50.9769 24.2018 50.9195 24.8Z"></path></g></svg>